<svg xmlns="http://www.w3.org/2000/svg" width="24" height="24" viewBox="0 0 24 24">
    <g fill="none" fill-rule="evenodd" stroke="#333" stroke-linecap="round" stroke-linejoin="round" stroke-width="1.8">
        <path d="M10.444 5l-.086.437-.329 1.598a5.52 5.52 0 0 0-1.434.823l-1.608-.537-.432-.134-.224.386-1.107 1.85L5 9.81l.328.287 1.244 1.058c-.045.277-.103.551-.103.842 0 .29.058.565.103.842l-1.244 1.058-.328.287.224.386 1.107 1.85.224.387.432-.135 1.608-.537a5.52 5.52 0 0 0 1.434.823l.329 1.598.086.437h3.111l.087-.437.328-1.598a5.52 5.52 0 0 0 1.434-.823l1.608.537.432.135.225-.387 1.106-1.85.225-.386-.329-.287-1.244-1.058c.046-.277.103-.551.103-.842 0-.29-.057-.565-.103-.842l1.244-1.058L19 9.81l-.225-.386-1.106-1.85-.225-.386-.432.134-1.608.537a5.52 5.52 0 0 0-1.434-.823l-.328-1.598L13.555 5h-3.111z"/>
        <path d="M13.75 11.996a1.75 1.75 0 1 1-3.5-.002 1.75 1.75 0 0 1 3.5.002z"/>
    </g>
</svg>
